<?xml version="1.0" encoding="UTF-8" standalone="no"?>
<svg width="70px" height="70px" viewBox="0 0 70 70" version="1.1" xmlns="http://www.w3.org/2000/svg" xmlns:xlink="http://www.w3.org/1999/xlink">
    <!-- Generator: Sketch 3.8.3 (29802) - http://www.bohemiancoding.com/sketch -->
    <title>logo</title>
    <desc>Created with Sketch.</desc>
    <defs></defs>
    <g id="Assets" stroke="none" stroke-width="1" fill="none" fill-rule="evenodd">
        <g transform="translate(-64.000000, -67.000000)" id="logo">
            <g transform="translate(64.000000, 67.000000)">
                <polygon id="Fill-1" fill="#293140" points="0 0.049022082 69.9523028 0.049022082 69.9523028 69.9867508 0 69.9867508"></polygon>
                <path d="M65.6198107,54.2943849 L67.9384227,54.2943849 L61.8188328,38.5408517 L61.0300631,38.5408517 L60.2889905,40.5249211 L62.9187382,47.4335016 L57.7078233,47.4335016 L54.9345426,54.2943849 L56.1779811,54.2943849 L58.4725237,48.3900946 L63.277571,48.3900946 L65.6198107,54.2943849 L65.6198107,54.2943849 Z M19.7742271,19.0088644 L19.0172555,21.0357729 L21.7041956,28.0947319 L16.38,28.0947319 L13.5464353,35.1044479 L14.8165931,35.1044479 L17.161041,29.072082 L22.0707571,29.072082 L24.4635647,35.1044479 L26.8327445,35.1044479 L20.5802208,19.0088644 L19.7742271,19.0088644 L19.7742271,19.0088644 Z M24.5642587,19.9857729 L29.0826814,19.9857729 L29.0826814,35.1044479 L31.4032808,35.1044479 L31.4032808,19.0088644 L24.1738486,19.0088644 L24.5642587,19.9857729 L24.5642587,19.9857729 Z M57.0552997,43.2982019 C57.0552997,40.2619243 54.807571,38.5408517 51.2700315,38.5408517 L46.7279811,38.5408517 L46.7279811,54.2943849 L48.9988959,54.2943849 L48.9988959,39.4974448 L51.054511,39.4974448 C53.468959,39.4974448 54.6885489,41.075205 54.6885489,43.3216088 C54.6885489,45.7126498 53.6122713,47.3381073 51.1980442,47.3381073 L50.4808202,47.3381073 L50.887571,48.2704101 C55.1900315,48.2704101 57.0552997,45.7364984 57.0552997,43.2982019 L57.0552997,43.2982019 Z M35.2687382,42.3416088 C35.2687382,46.9792744 42.0340063,46.9313565 42.0340063,50.4218612 C42.0340063,52.5971609 40.5993375,53.5771609 39.0217981,53.5771609 C37.6829653,53.5771609 36.1774132,53.0275394 35.2928076,52.3343849 L35.2928076,53.672776 C36.2008202,54.1270032 37.4683281,54.5333123 39.2607256,54.5333123 C42.3681073,54.5333123 44.3771293,52.6210095 44.3771293,50.2065615 C44.3771293,45.4492114 37.5639432,45.6168139 37.5639432,42.0549842 C37.5639432,40.118612 38.854858,39.3773186 40.3604101,39.3773186 C41.6038486,39.3773186 43.0137855,39.8794637 43.8983912,40.5489905 L43.8983912,39.2105994 C43.1336909,38.827918 41.8902524,38.4216088 40.0258675,38.4216088 C36.8230915,38.4216088 35.2687382,40.2382965 35.2687382,42.3416088 L35.2687382,42.3416088 Z M46.7279811,27.7182334 L46.7279811,35.1044479 L48.9988959,35.1044479 L48.9988959,19.0088644 L46.7279811,19.0088644 L46.7279811,26.7616404 L40.8718297,26.7616404 L41.2882965,27.7182334 L46.7279811,27.7182334 L46.7279811,27.7182334 Z M4.72466877,35.1044479 L4.72466877,19.9857729 L7.24047319,19.9857729 C9.24375394,19.9857729 10.1714196,21.1823975 10.1714196,23.0878549 C10.1714196,25.1885174 8.80343849,26.4098738 6.70321767,26.4098738 L6.94766562,27.3375394 L7.38687697,27.3375394 C9.48798107,27.3375394 10.8310095,28.8517035 10.8310095,30.6838486 C10.8310095,32.7114196 9.68340694,34.1282019 7.26520505,34.1282019 L6.29845426,34.1282019 L6.29845426,35.1044479 L7.24047319,35.1044479 C11.7595584,35.1044479 13.2739432,32.76 13.2739432,30.6350473 C13.2739432,28.7541009 12.0276341,27.2397161 9.26804416,26.8005047 L9.26804416,26.7269716 C11.5641325,25.9942902 12.5898423,24.3335016 12.5898423,22.6967823 C12.5898423,20.963123 11.1489905,19.0088644 7.94864353,19.0088644 L2.40473186,19.0088644 L2.40473186,35.1044479 L4.72466877,35.1044479 L4.72466877,35.1044479 Z M37.0814511,35.1044479 L39.4020505,35.1044479 L39.4020505,27.5574763 L39.4040379,27.5574763 L39.4040379,26.580347 L39.4020505,26.580347 L39.4020505,19.0088644 L32.9911987,19.0088644 L32.9911987,19.9857729 L37.0814511,19.9857729 L37.0814511,35.1044479 L37.0814511,35.1044479 Z M48.3315773,62.1569085 C47.4054574,61.6163407 46.530347,61.1058044 46.530347,60.1609148 C46.530347,58.7595899 47.8925868,58.6509464 48.3103785,58.6509464 C48.8555836,58.6509464 49.5257729,58.8185489 50.1041009,59.1000946 L50.2425552,59.167224 L50.2425552,58.3188328 L50.187571,58.2929968 C49.6735016,58.0443533 49.0326814,57.9180442 48.2834385,57.9180442 C46.7485174,57.9180442 45.6770978,58.8348896 45.6770978,60.1474448 C45.6770978,61.5699685 46.7388013,62.1847319 47.765836,62.7791798 L47.8172871,62.8087697 C48.8756782,63.4102839 49.6856467,63.9473186 49.6856467,64.9253312 C49.6856467,65.9914511 48.7206625,66.4768139 47.8239117,66.4768139 C46.7388013,66.4768139 45.9754259,66.0733754 45.7676341,65.9501577 L45.622776,65.8635962 L45.622776,66.7274448 L45.6775394,66.7539432 C46.3161514,67.0555836 47.0247634,67.2088328 47.7835016,67.2088328 C49.4317035,67.2088328 50.5388959,66.2427445 50.5388959,64.8045426 C50.5388959,63.4584227 49.3665615,62.7668139 48.3315773,62.1569085 L48.3315773,62.1569085 Z M43.9359306,60.4773502 C43.9359306,58.8764038 42.8201262,57.9577918 40.8749211,57.9577918 L38.8431546,57.9577918 L38.8431546,67.0739117 L39.6418612,67.0739117 L39.6418612,58.6893691 L40.8749211,58.6893691 C42.2486435,58.6893691 43.0689905,59.3628707 43.0689905,60.491041 C43.0689905,61.6326814 42.2000631,62.387224 40.7450789,62.5088959 L40.585205,62.5225868 L43.6005047,67.0739117 L44.5864669,67.0739117 L41.8794322,62.9860883 C43.2074448,62.6011987 43.9359306,61.7143849 43.9359306,60.4773502 L43.9359306,60.4773502 Z M67.0189274,57.9856151 L64.9681703,61.8521767 L65.4495584,62.6347634 L67.9388644,57.9856151 L67.0189274,57.9856151 L67.0189274,57.9856151 Z M61.8404732,57.9856151 L59.1513249,57.9856151 L59.1513249,58.7185174 L61.6545426,58.7185174 L64.1992744,63.4385489 L64.1992744,67.0739117 L64.9995268,67.0739117 L64.9995268,63.3056151 L62.1807571,57.9856151 L61.8404732,57.9856151 L61.8404732,57.9856151 Z M51.9987382,67.0739117 L52.7844164,67.0739117 L52.7844164,57.9856151 L51.9987382,57.9856151 L51.9987382,67.0739117 Z M54.5291167,58.7185174 L57.66653,58.7185174 L57.66653,67.0739117 L58.4661199,67.0739117 L58.4661199,57.9856151 L54.5291167,57.9856151 L54.5291167,58.7185174 L54.5291167,58.7185174 Z M8.16504732,63.8464038 C8.16504732,65.6412303 7.37583596,66.4768139 5.68302839,66.4768139 C3.98933754,66.4768139 3.20078864,65.6412303 3.20078864,63.8464038 L3.20078864,57.9856151 L2.4007571,57.9856151 L2.4007571,63.8329338 C2.4007571,65.3731546 2.97025237,67.2088328 5.68302839,67.2088328 C8.3955836,67.2088328 8.9644164,65.3731546 8.9644164,63.8329338 L8.9644164,57.9856151 L8.16504732,57.9856151 L8.16504732,63.8464038 L8.16504732,63.8464038 Z M17.4021767,65.7836593 L11.6219874,58.0249211 L11.5935016,57.9856151 L10.6373502,57.9856151 L17.4231546,67.0739117 L18.1878549,67.0739117 L18.1878549,57.9856151 L17.4021767,57.9856151 L17.4021767,65.7836593 L17.4021767,65.7836593 Z M10.6373502,67.0739117 L11.4239117,67.0739117 L11.4239117,60.1547319 L10.6373502,59.1544164 L10.6373502,67.0739117 L10.6373502,67.0739117 Z M19.9670032,67.0739117 L20.7540063,67.0739117 L20.7540063,57.9856151 L19.9670032,57.9856151 L19.9670032,67.0739117 Z M37.1682334,57.9856151 L32.2618297,57.9856151 L32.2618297,67.0739117 L36.9823028,67.0739117 L37.1655836,66.3418927 L33.0611987,66.3418927 L33.0611987,58.7185174 L36.9664038,58.7185174 L37.1682334,57.9856151 L37.1682334,57.9856151 Z M36.2571293,62.9163091 L36.2571293,62.1842902 L33.4681703,62.1842902 L33.7609779,62.9163091 L36.2571293,62.9163091 L36.2571293,62.9163091 Z M22.3205047,57.9856151 L25.9329022,67.0739117 L26.8007256,67.0739117 L23.2287382,57.9856151 L22.3205047,57.9856151 L22.3205047,57.9856151 Z M29.7347634,57.9856151 L30.6039117,57.9856151 L27.3006625,65.8923028 L26.8870662,64.8853628 L26.902082,64.8491483 L29.7347634,57.9856151 L29.7347634,57.9856151 Z" id="Fill-3" fill="#FFFFFF"></path>
            </g>
        </g>
    </g>
</svg>